<svg id="Layer_1" data-name="Layer 1" xmlns="http://www.w3.org/2000/svg" viewBox="0 0 300 300"><defs><style>.cls-1{fill:#b4b4b4}</style></defs><g id="g10"><g id="g12"><path id="path14" class="cls-1" d="M150.06 3L12 51.58l21.82 180.88 116.38 64 117-64.83L289 50.73z"/><path id="path16" d="M275.23 61.18l-125.5-42.8v262.77L254.91 223z" fill="#b02b2d"/><path id="path18" d="M27.49 62l18.7 161.77 103.54 57.43V18.38L27.49 62z" fill="#e02f31"/><path id="path20" d="M178.82 149.08L150 88.81l-25.4 60.27zm11 25.34h-76.5l-17.11 42.81-31.83.59 85.36-189.89 88.33 189.89h-29.51l-18.73-43.4z" fill="#f3f3f3"/><path id="path22" class="cls-1" d="M149.73 27.93l.27 60.88 28.83 60.32h-29l-.07 25.25h40.1l18.73 43.41 30.46.56z"/></g></g></svg>