<svg id="Layer_1" data-name="Layer 1" xmlns="http://www.w3.org/2000/svg" viewBox="0 0 300 300"><defs><style>.cls-3{fill:#ebebeb}.cls-4{fill:#010101}</style></defs><g id="layer1"><g id="g3013"><path id="polygon2989" fill="#435ba9" d="M254 60.8l-18.95 212.28-85.18 23.61-84.94-23.58L46 60.8h208z"/><path id="polygon2991" fill="#4767b0" d="M218.83 259.56l16.19-181.4H150v200.48l68.83-19.08z"/><path id="polygon2993" class="cls-3" d="M89.39 156.9l2.34 26.04H150V156.9H89.39z"/><path id="polygon2995" class="cls-3" d="M150 104.2H84.7l2.37 26.04H150V104.2z"/><path id="polygon2997" class="cls-3" d="M150 251.62v-27.09l-.11.03-29-7.83-1.86-20.77H92.89l3.65 40.89 53.34 14.81.12-.04z"/><path id="path2999" class="cls-4" d="M95 3.1h31.54v13.19h-18.4v13.19h18.35v13.19H95z"/><path id="path3001" class="cls-4" d="M132.8 3.1h31.54v11.47H146v2.29h18.35v26.38H132.8v-12h18.35v-2.33H132.8z"/><path id="path3003" class="cls-4" d="M170.64 3.1h31.54v11.47h-18.35v2.29h18.35v26.38h-31.54v-12H189v-2.33h-18.36z"/><path id="polygon3005" fill="#fff" d="M181.97 182.94l-3.02 33.77-29.04 7.84v27.09l53.38-14.79.39-4.4 6.12-68.55.64-7 4.7-52.7h-65.23v26.04h36.69l-2.37 26.66h-34.32v26.04h32.06z"/></g></g></svg>