<svg data-name="Layer 1" xmlns="http://www.w3.org/2000/svg" viewBox="0 0 300 300"><path d="M64.8 4H78v13.05h12.09V4h13.17v39.49H90.09V30.32h-12v13.17H64.8m55.85-26.33H109V4h36.45v13.16h-11.64v26.33h-13.16M151.27 4h13.79l8.47 13.91L182 4h13.79v39.49h-13.16V23.91l-9.21 14.2-9.22-14.2v19.58h-12.93M202.32 4h13.16v26.44h18.65v13.05h-31.81" fill="#010101"/><path d="M64.34 273.54l-18.88-212h207.61l-18.88 211.88-85.1 23.58" fill="#e44f26"/><path d="M149.27 279V79h84.86l-16.19 180.8" fill="#f1672a"/><path d="M84 104.89h65.24v26h-36.71l2.4 26.61h34.34v25.93H91.12m1.15 13h26.09l1.83 20.78 29.08 7.79v27.12l-53.34-14.86" fill="#ebebeb"/><path d="M214.28 104.89h-65.13v26h62.72m-2.34 26.61h-60.38v26h32l-3 33.77-29 7.78v27l53.22-14.76" fill="#fff"/></svg>