<svg id="Layer_1" data-name="Layer 1" xmlns="http://www.w3.org/2000/svg" viewBox="0 0 300 300"><defs><style>.cls-2{fill:#010101}</style></defs><g id="js-logo"><path id="background" fill="#f6df19" d="M0 0h300v300H0z"/><path id="j" class="cls-2" d="M78.88 250.7l23-13.89c4.43 7.85 8.46 14.49 18.12 14.49 9.27 0 15.11-3.62 15.11-17.71v-95.86h28.19V234c0 29.2-17.12 42.5-42.09 42.5-22.55 0-35.64-11.68-42.29-25.78"/><path id="s" class="cls-2" d="M178.57 247.68l23-13.29c6 9.87 13.89 17.12 27.79 17.12 11.68 0 19.13-5.84 19.13-13.9 0-9.66-7.65-13.09-20.54-18.72l-7-3C200.52 207.2 187 196.33 187 173.37c0-21.14 16.11-37.25 41.28-37.25 17.92 0 30.81 6.24 40.07 22.55l-21.95 14.1c-4.83-8.66-10.06-12.08-18.12-12.08-8.26 0-13.49 5.23-13.49 12.08 0 8.46 5.23 11.88 17.32 17.12l7 3c24 10.27 37.46 20.74 37.46 44.3 0 25.37-19.94 39.27-46.72 39.27-26.18 0-43.09-12.49-51.35-28.8"/></g></svg>