<svg id="Layer_1" data-name="Layer 1" xmlns="http://www.w3.org/2000/svg" viewBox="0 0 300 300"><defs><style>.cls-1{fill:#010101}.cls-7{fill:#266ab4}.cls-15{fill:#1982c5}.cls-25{fill:#295eac}</style><linearGradient id="linear-gradient" x1="1.05" y1="300.95" x2="1.99" y2="300.95" gradientTransform="matrix(0 149.73 149.73 0 -44931.72 -146.88)" gradientUnits="userSpaceOnUse"><stop offset="0" stop-color="#2693d1"/><stop offset=".35" stop-color="#67cef4"/><stop offset=".85" stop-color="#277bbf"/><stop offset="1" stop-color="#277bbf"/></linearGradient><linearGradient id="linear-gradient-2" x1="1.05" y1="300.95" x2="1.99" y2="300.95" gradientTransform="matrix(0 153.55 153.55 0 -46074.62 -154.49)" gradientUnits="userSpaceOnUse"><stop offset="0" stop-color="#1377bc"/><stop offset=".36" stop-color="#3dade2"/><stop offset=".85" stop-color="#2dabe2"/><stop offset="1" stop-color="#2dabe2"/></linearGradient><linearGradient id="linear-gradient-3" x1="1" y1="301.08" x2="1.94" y2="301.08" gradientTransform="matrix(0 -122.18 -122.18 0 36950.55 241.57)" gradientUnits="userSpaceOnUse"><stop offset="0" stop-color="#2865b0"/><stop offset=".5" stop-color="#3fbced"/><stop offset="1" stop-color="#3fbced" stop-opacity=".42"/></linearGradient><linearGradient id="linear-gradient-4" x1="1.05" y1="300.94" x2="1.99" y2="300.94" gradientTransform="matrix(0 159.43 159.43 0 -47820.07 -175.92)" gradientUnits="userSpaceOnUse"><stop offset="0" stop-color="#206bb5"/><stop offset=".4" stop-color="#3dade2"/><stop offset=".85" stop-color="#2397d4"/><stop offset="1" stop-color="#2397d4"/></linearGradient><linearGradient id="linear-gradient-5" x1="1.05" y1="300.95" x2="1.99" y2="300.95" gradientTransform="matrix(0 169.53 169.53 0 -50873.45 -185.18)" gradientUnits="userSpaceOnUse"><stop offset="0" stop-color="#174479"/><stop offset=".39" stop-color="#1d87c9"/><stop offset=".78" stop-color="#165297"/><stop offset="1" stop-color="#165297"/></linearGradient><linearGradient id="linear-gradient-6" x1="958.68" y1="-1769.16" x2="964.26" y2="-1769.16" gradientTransform="matrix(4.04 0 0 -4.04 -3789.58 -7103.54)" gradientUnits="userSpaceOnUse"><stop offset="0" stop-color="#3fbced" stop-opacity=".7"/><stop offset="1" stop-color="#20acd8"/></linearGradient><linearGradient id="linear-gradient-7" x1="1" y1="301.13" x2="1.94" y2="301.13" gradientTransform="matrix(0 -119.02 -119.02 0 36090.8 235.35)" gradientUnits="userSpaceOnUse"><stop offset="0" stop-color="#166bb5"/><stop offset=".6" stop-color="#5ec9f4" stop-opacity=".55"/><stop offset="1" stop-color="#5ec9f4" stop-opacity=".24"/></linearGradient><linearGradient id="linear-gradient-8" x1="938.91" y1="-1775.77" x2="959.58" y2="-1775.77" gradientTransform="matrix(4.04 0 0 -4.04 -3789.58 -7103.54)" gradientUnits="userSpaceOnUse"><stop offset="0" stop-color="#269fda" stop-opacity=".25"/><stop offset="1" stop-color="#269fda"/></linearGradient><linearGradient id="linear-gradient-9" x1="1" y1="301.02" x2="1.94" y2="301.02" gradientTransform="matrix(0 -121.87 -121.87 0 36731.87 241.2)" gradientUnits="userSpaceOnUse"><stop offset="0" stop-color="#388dcc"/><stop offset="1" stop-color="#40a6de"/></linearGradient><linearGradient id="linear-gradient-10" x1="1" y1="301.02" x2="1.94" y2="301.02" gradientTransform="matrix(0 -118.46 -118.46 0 35714.46 238.22)" gradientUnits="userSpaceOnUse"><stop offset="0" stop-color="#269fda"/><stop offset="1" stop-color="#269fda" stop-opacity=".55"/></linearGradient><linearGradient id="linear-gradient-11" x1="1.01" y1="301.03" x2="1.95" y2="301.03" gradientTransform="matrix(0 -100.1 -100.1 0 30194.65 225.9)" gradientUnits="userSpaceOnUse"><stop offset="0" stop-color="#1e5ba6"/><stop offset=".5" stop-color="#269fda"/><stop offset=".92" stop-color="#7fc5e9"/><stop offset="1" stop-color="#7fc5e9"/></linearGradient><linearGradient id="linear-gradient-12" x1="1.01" y1="301.03" x2="1.95" y2="301.03" gradientTransform="scale(-110.21 110.21) rotate(-79.999 -178.518 152.005)" gradientUnits="userSpaceOnUse"><stop offset="0" stop-color="#165196"/><stop offset="1" stop-color="#1982c5"/></linearGradient><linearGradient id="linear-gradient-13" x1=".94" y1="301.25" x2="1.88" y2="301.25" gradientTransform="matrix(0 -56.72 -56.72 0 17318.81 114.75)" gradientUnits="userSpaceOnUse"><stop offset="0" stop-color="#269fda"/><stop offset=".87" stop-color="#1795d3"/><stop offset="1" stop-color="#1795d3"/></linearGradient><linearGradient id="linear-gradient-14" x1="1.07" y1="300.89" x2="2.01" y2="300.89" gradientTransform="scale(-132.8 132.8) rotate(80.001 178.857 148.67)" gradientUnits="userSpaceOnUse"><stop offset="0" stop-color="#40a6de" stop-opacity=".33"/><stop offset=".96" stop-color="#2687c8"/><stop offset="1" stop-color="#2687c8"/></linearGradient><linearGradient id="linear-gradient-15" x1="1.06" y1="300.88" x2="2" y2="300.88" gradientTransform="matrix(0 123.74 123.74 0 -36994.55 -123.09)" gradientUnits="userSpaceOnUse"><stop offset="0" stop-color="#258bcc"/><stop offset=".5" stop-color="#2287c9"/><stop offset="1" stop-color="#164c8d"/></linearGradient><linearGradient id="linear-gradient-16" x1=".95" y1="300.73" x2="1.89" y2="300.73" gradientTransform="matrix(28.5 11.82 11.82 -28.5 -3492.95 8565.78)" gradientUnits="userSpaceOnUse"><stop offset="0" stop-color="#98d5ed"/><stop offset=".7" stop-color="#57c1ea"/><stop offset="1" stop-color="#57c1ea"/></linearGradient><linearGradient id="linear-gradient-17" x1=".69" y1="300.86" x2="1.62" y2="300.86" gradientTransform="scale(24.72 -24.72) rotate(24.4 700.062 158.142)" gradientUnits="userSpaceOnUse"><stop offset="0" stop-color="#7bcceb"/><stop offset="1" stop-color="#45b7e9"/></linearGradient><linearGradient id="linear-gradient-18" x1="1.05" y1="300.89" x2="1.99" y2="300.89" gradientTransform="matrix(0 121.03 121.03 0 -36195.61 -113.53)" gradientUnits="userSpaceOnUse"><stop offset="0" stop-color="#2da6de"/><stop offset="1" stop-color="#3eaae0" stop-opacity="0"/></linearGradient></defs><g id="layer1"><path id="path12245" class="cls-1" d="M247 114.31h-2.63v8.16h-1.07v-8.16h-2.63v-1H247z"/><path id="path12257" class="cls-1" d="M257.77 122.47h-1.07v-6.13c0-.49 0-1.08.09-1.78a5.61 5.61 0 0 1-.29.9l-3.11 7h-.52l-3.12-7a5.45 5.45 0 0 1-.28-1v7.91h-1v-9.13h1.41l2.8 6.37a7.73 7.73 0 0 1 .42 1.1c.18-.5.33-.88.44-1.13l2.86-6.34h1.34v9.13z"/><path id="path12261" class="cls-1" d="M249.45 156.39a1.34 1.34 0 0 0-.42-1.09 2.59 2.59 0 0 0-1.59-.38h-1.08v3h1.3c1.2 0 1.79-.5 1.79-1.49m1.68 6.17h-1.48l-.94-2.08c-.48-1-1-1.57-1.55-1.57h-.8v3.65h-1.22v-8.68h2.44a3.61 3.61 0 0 1 2.46.73 2.05 2.05 0 0 1 .71 1.63 2.14 2.14 0 0 1-.58 1.52 2.88 2.88 0 0 1-1.62.85c.48.11 1 .65 1.44 1.6l1.14 2.31zm2.7-4.26a5.81 5.81 0 0 0-1.74-4.29 5.89 5.89 0 0 0-4.27-1.71 6.05 6.05 0 1 0 6 6m.82 0a6.46 6.46 0 0 1-2 4.81 7.12 7.12 0 0 1-9.75.06 6.92 6.92 0 0 1 0-9.63 6.6 6.6 0 0 1 4.88-2 6.69 6.69 0 0 1 4.82 1.87 6.43 6.43 0 0 1 2 4.85"/><path id="path12265" class="cls-1" d="M69.22 182.46H65v-24.07q0-2.85.35-6.94h-.1a22.16 22.16 0 0 1-1.07 3.47L52 182.46h-2l-12.31-27.34a19.71 19.71 0 0 1-1.08-3.67h-.09c.13 1.44.2 3.76.2 7v24h-4v-35.83h5.55l11 25a32.54 32.54 0 0 1 1.63 4.29h.1c.72-2 1.29-3.42 1.72-4.39L64 146.62h5.26v35.84z"/><path id="path12267" class="cls-1" d="M82.16 182.46h-4.09v-25.59h4.09zm.71-34.77a2.53 2.53 0 0 1-.8 1.9 2.56 2.56 0 0 1-1.9.78 2.64 2.64 0 0 1-1.89-.75 2.72 2.72 0 0 1 0-3.81 2.74 2.74 0 0 1 3.79 0 2.52 2.52 0 0 1 .8 1.88"/><path id="path12271" class="cls-1" d="M107.7 181.27a13.15 13.15 0 0 1-7 1.81 11.53 11.53 0 0 1-8.87-3.65 12.94 12.94 0 0 1-3.3-9.15 14.25 14.25 0 0 1 3.62-10.16 12.57 12.57 0 0 1 9.7-3.88 13.06 13.06 0 0 1 5.92 1.3v4.21a10.4 10.4 0 0 0-6.09-2 8.17 8.17 0 0 0-6.37 2.73 10.52 10.52 0 0 0-2.58 7.44 10.15 10.15 0 0 0 2.34 7.08 8.15 8.15 0 0 0 6.33 2.6 10.32 10.32 0 0 0 6.3-2.2v3.89z"/><path id="path12275" class="cls-1" d="M127.24 161a5 5 0 0 0-3.13-.83 5.08 5.08 0 0 0-4.19 2.25 11.19 11.19 0 0 0-1.93 7v13.05h-4.09v-25.6h4.1v5.27h.1a9 9 0 0 1 2.78-4.32 6.12 6.12 0 0 1 3.92-1.4 6.62 6.62 0 0 1 2.45.35V161z"/><path id="path12279" class="cls-1" d="M150.07 169.71q0-4.92-2.22-7.5a7.54 7.54 0 0 0-6-2.47 7.9 7.9 0 0 0-6.12 2.5c-1.61 1.79-2.42 4.3-2.42 7.57a10.34 10.34 0 0 0 2.32 7.18 7.92 7.92 0 0 0 6.22 2.59A7.51 7.51 0 0 0 148 177c1.38-1.71 2.07-4.12 2.07-7.25m4.2-.14c0 4.07-1.15 7.35-3.44 9.8a12.12 12.12 0 0 1-9.3 3.7 11.74 11.74 0 0 1-9.14-3.7 13.29 13.29 0 0 1-3.3-9.41c0-4.45 1.24-7.89 3.75-10.32a12.7 12.7 0 0 1 9.28-3.4q5.73 0 8.95 3.55t3.2 9.78"/><path id="path12283" class="cls-1" d="M174.59 175.61a6.66 6.66 0 0 1-2.35 5.22 10.31 10.31 0 0 1-7 2.24 12.47 12.47 0 0 1-6.35-1.54v-4.4a10.29 10.29 0 0 0 6.65 2.45c3.24 0 4.87-1.19 4.87-3.57a3.16 3.16 0 0 0-1.08-2.47 17 17 0 0 0-4.2-2.36 13.37 13.37 0 0 1-4.57-2.9 6.58 6.58 0 0 1-1.63-4.62 6.65 6.65 0 0 1 2.53-5.3 9.78 9.78 0 0 1 6.5-2.12 12.15 12.15 0 0 1 5.47 1.2v4.12a9.72 9.72 0 0 0-5.81-1.82 5 5 0 0 0-3.25 1 3.19 3.19 0 0 0-1.24 2.57 3.43 3.43 0 0 0 1 2.65 14.48 14.48 0 0 0 3.84 2.12 14.85 14.85 0 0 1 4.73 2.84 6.3 6.3 0 0 1 1.88 4.69"/><path id="path12287" class="cls-1" d="M199.62 169.71q0-4.92-2.22-7.5a7.54 7.54 0 0 0-6-2.47 7.93 7.93 0 0 0-6.13 2.5c-1.61 1.79-2.41 4.3-2.41 7.57a10.43 10.43 0 0 0 2.3 7.18 8 8 0 0 0 6.24 2.59 7.48 7.48 0 0 0 6.16-2.62c1.39-1.71 2.08-4.12 2.08-7.25m4.21-.14c0 4.07-1.16 7.35-3.46 9.8a12.07 12.07 0 0 1-9.29 3.7 11.76 11.76 0 0 1-9.15-3.7 13.33 13.33 0 0 1-3.3-9.41c0-4.45 1.26-7.89 3.75-10.32a12.73 12.73 0 0 1 9.3-3.4q5.72 0 8.93 3.55t3.22 9.78"/><path id="path12291" class="cls-1" d="M221.88 148.17a5.56 5.56 0 0 0-2.72-.67c-2.87 0-4.29 1.8-4.29 5.42v4h6v3.47h-6v22.12h-4.1v-22.17h-4.35v-3.47h4.35v-4.15a8.46 8.46 0 0 1 2.62-6.62 7.85 7.85 0 0 1 5.52-2.07 8.08 8.08 0 0 1 3 .44z"/><path id="path12295" class="cls-1" d="M238.05 182.2a7.69 7.69 0 0 1-3.85.83q-6.7 0-6.7-7.55v-15.14h-4.39v-3.47h4.39v-6.25c1.31-.41 2.67-.86 4.11-1.33v7.58h6.44v3.47h-6.44v14.44a5.91 5.91 0 0 0 .86 3.66 3.56 3.56 0 0 0 2.93 1.09 4.35 4.35 0 0 0 2.65-.82v3.49z"/><path id="path12299" class="cls-1" d="M16.61 282.34a7.12 7.12 0 0 1-2.16 5.2 7.1 7.1 0 0 1-5.24 2.2 6.8 6.8 0 0 1-5.11-2.2 7.55 7.55 0 0 1 0-10.45 6.84 6.84 0 0 1 5.11-2.16 7.09 7.09 0 0 1 5.24 2.19 7.17 7.17 0 0 1 2.16 5.22"/><path id="path12303" class="cls-1" d="M108.33 288.23H95l-48.5-74.89a34.54 34.54 0 0 1-2.94-5.9h-.4a96.27 96.27 0 0 1 .53 12.91v67.88h-11v-94h14.3L94 268c1.87 2.93 3.15 5 3.8 6.28h.2a100 100 0 0 1-.66-13.81v-66.2h11v94z"/><path id="path12307" class="cls-1" d="M178.93 288.23h-49.8v-94h47.64v10h-36.63v31.25h33.94v10h-33.94v32.82h38.79z"/><path id="path12311" class="cls-1" d="M254.47 204.23H227.4v84h-11v-84h-27.13v-10h65.2v10z"/><path id="path12339" d="M104.59 32c10.63 32.49 14.65 90.45 45.72 90.45a38 38 0 0 0 7.15-.69c-28.24-6.58-31.59-63.91-48.82-93.6-1.35 1.23-2.69 2.51-4 3.84" fill="url(#linear-gradient)"/><path id="path12367" d="M108.64 28.14c17.23 29.69 20.58 87 48.82 93.6a44.93 44.93 0 0 0 6.67-1.8c-25.35-12.42-32.35-68.09-51.92-94.89q-1.78 1.48-3.57 3.09" fill="url(#linear-gradient-2)"/><path id="path12379" d="M133.47 10.49a39 39 0 0 0-7.16.68 55.09 55.09 0 0 0-19.11 8 48 48 0 0 1 5 5.89 68.67 68.67 0 0 1 19.53-11.86 43.11 43.11 0 0 1 7.29-2 22.35 22.35 0 0 0-5.56-.68" fill="#13569b"/><path id="path12459" d="M183.92 108.49q3.89-3.09 7.8-6.83c-10.8-32.34-14.66-91.13-45.95-91.13a36.69 36.69 0 0 0-6.74.63c28.49 7.09 32.14 69.09 44.89 97.33" fill="url(#linear-gradient-3)"/><path id="path12521" d="M139 11.16a22.83 22.83 0 0 0-5.56-.67h12.3a36.69 36.69 0 0 0-6.74.63" fill="#3292c4"/><path id="path12525" class="cls-7" d="M183.38 115.36a46.11 46.11 0 0 1-3.53-3.81 64.59 64.59 0 0 1-15.72 8.39 24.29 24.29 0 0 0 5.86 2 25.29 25.29 0 0 0 5 .49c5.85 0 10.47-.69 14.41-2.58a27.07 27.07 0 0 1-6-4.49"/><path id="path12553" d="M131.74 13.19c25.52 13.36 27.74 73.81 48.11 98.36q2-1.44 4.07-3.06c-12.75-28.24-16.4-90.25-44.92-97.33a45.11 45.11 0 0 0-7.29 2" fill="url(#linear-gradient-4)"/><path id="path12581" d="M112.21 25.05c19.57 26.8 26.57 82.47 51.92 94.89a64.59 64.59 0 0 0 15.72-8.39c-20.37-24.55-22.59-85-48.11-98.36a68.53 68.53 0 0 0-19.53 11.86" fill="url(#linear-gradient-5)"/><path id="path12651" d="M92.07 31.2c-3.07 6.94-6.2 16.05-10 28A209.36 209.36 0 0 1 104.59 32a82.11 82.11 0 0 0-3.32-8.67 112.62 112.62 0 0 0-9.2 7.89" fill="url(#linear-gradient-6)"/><path id="path12655" d="M104 21.31c-.9.64-1.81 1.3-2.72 2a82.11 82.11 0 0 1 3.31 8.69c1.36-1.32 2.7-2.61 4-3.84a53.75 53.75 0 0 0-4.59-6.85" fill="#2c75b2"/><path id="path12659" d="M107.2 19.16c-1.07.68-2.14 1.4-3.21 2.15a53.17 53.17 0 0 1 4.65 6.84c1.19-1.08 2.38-2.12 3.57-3.1a48 48 0 0 0-5-5.89" fill="#145b9e"/><path id="path12741" d="M281.3 8c-14.43 55.68-44.58 100.39-69.86 111.66h-.05c-.46.21-.92.4-1.37.59a.64.64 0 0 1-.16.06l-.39.15a.67.67 0 0 1-.18.07c-.21.08-.42.14-.63.23l-.26.09a2.26 2.26 0 0 1-.31.1l-.3.11a2.14 2.14 0 0 0-.27.09l-.54.16a1 1 0 0 0-.23.06l-.37.1a1 1 0 0 1-.24.07l-.4.1-.49.11a10.4 10.4 0 0 0 3.62.63C232.84 122.39 257 79.44 297 8h-15.7z" fill="url(#linear-gradient-7)"/><path id="path12803" d="M76.88 12.75a.05.05 0 0 0 .06 0l.39-.15h.07c.07 0 .07 0 .1-.05l.5-.25c.32-.1.61-.22.92-.33h.14l.39-.12a.76.76 0 0 1 .18-.06l.4-.12a.54.54 0 0 0 .15 0l1.32-.34h.18a2.57 2.57 0 0 1 .38-.08 1.33 1.33 0 0 1 .19-.05c.13 0 .25-.05.39-.08h.09l.8-.14h.17a2.29 2.29 0 0 1 .36-.07h.21a2.23 2.23 0 0 0 .36 0 .34.34 0 0 0 .19 0c.28 0 .57-.05.87-.07-.83-.08-1.69-.14-2.55-.14-27 0-64.19 50.09-80.95 115h3.24c5.36-9.57 10.18-18.61 14.59-27.1C31.75 52.37 55.65 21 76.88 12.74" fill="url(#linear-gradient-8)"/><path id="path12807" class="cls-15" d="M92.07 31.2a112.62 112.62 0 0 1 9.2-7.89 45.25 45.25 0 0 0-2.19-4.24 51.88 51.88 0 0 0-7 12.13"/><path id="path12811" class="cls-15" d="M94.29 13.13a23.15 23.15 0 0 1 4.79 5.95 19.25 19.25 0 0 1 1.39-1.56A26.88 26.88 0 0 0 94 13l.29.14h.05"/><path id="path12831" d="M20 98.32c24.63-47.43 36.29-77.45 56.88-85.58C55.65 21.05 31.75 52.38 20 98.32" fill="url(#linear-gradient-9)"/><path id="path12843" d="M100.47 17.52c-.48.48-.93 1-1.39 1.56a43.84 43.84 0 0 1 2.19 4.23c.91-.7 1.82-1.36 2.72-2a36.6 36.6 0 0 0-3.52-3.79" fill="#277bbf"/><path id="path12923" d="M31.19 125.21a2.3 2.3 0 0 1-.45.05h-.52c-.31 0-.61 0-.91.06h-.09c24.91-.7 36.3-13.17 42-31.26 4.29-13.72 7.82-25.27 10.91-35-10.43 14.69-20.91 32.2-31.45 51.81-5.09 9.46-12.81 13.4-19.44 14.25" fill="url(#linear-gradient-10)"/><path id="path12949" d="M31.19 125.2c6.63-.85 14.35-4.79 19.44-14.25 10.54-19.61 21-37.12 31.45-51.81 3.79-11.9 6.92-21 10-27.95-20.79 19.81-41.65 52.67-60.89 94" fill="url(#linear-gradient-11)"/><path id="path12961" d="M20 98.32c-4.4 8.49-9.22 17.54-14.58 27.1h9.39A230.25 230.25 0 0 1 20 98.33" fill="#269fda"/><path id="path12981" d="M84.83 10.7h-.2a1.34 1.34 0 0 1-.35 0 .39.39 0 0 0-.21 0c-.12 0-.24 0-.37.07a.3.3 0 0 0-.16 0l-.8.14h-.09a3 3 0 0 1-.39.08.45.45 0 0 1-.19 0 2.87 2.87 0 0 1-.38.08.31.31 0 0 1-.18 0l-1.32.34h-.15l-.4.11a.64.64 0 0 1-.18.06l-.39.11h-.15c-.3.12-.6.23-.91.32l-.42.15s-.11 0-.17.07a3.53 3.53 0 0 0-.39.15l-.13.06C56.32 20.89 44.65 50.91 20 98.34a226.39 226.39 0 0 0-5.19 27.1h14.46c.29 0 .59 0 .9-.06h.97C50.46 83.92 71.32 51 92.1 31.25a51.59 51.59 0 0 1 7-12.12 22.8 22.8 0 0 0-4.79-6L94 13l-.29-.15-.29-.14a3.27 3.27 0 0 1-.33-.14l-.26-.11-.54-.23a2.34 2.34 0 0 0-.24-.09l-.4-.16a.94.94 0 0 0-.22-.07l-.57-.2-.66-.18a.27.27 0 0 0-.14 0l-.55-.15h-.13c-.45-.12-.91-.21-1.37-.3s-.1 0-.14 0l-.6-.09a.13.13 0 0 0-.11 0c-.24 0-.47-.07-.71-.09h-.12a5.24 5.24 0 0 0-.54-.06l-.86.08" fill="url(#linear-gradient-12)"/><path id="path13003" d="M224.92 38.83c-4.74 15.17-8.58 27.69-11.91 38 13-17.89 25.79-40.38 38-66.34-14.22 4.46-21.8 14.69-26.07 28.35" fill="url(#linear-gradient-13)"/><path id="path13093" d="M213.42 118.73c-.66.33-1.33.66-2 .94C236.72 108.4 266.87 63.69 281.3 8h-2.92c-33.17 59.25-43.84 98.91-65 110.72" fill="url(#linear-gradient-14)"/><path id="path13097" d="M196.91 113.75c5.5-6.71 10-18.13 16.1-36.93a185.49 185.49 0 0 1-21.26 24.81v.06a64.63 64.63 0 0 0 5.19 12.06" fill="#2898d5"/><path id="path13101" class="cls-7" d="M196.91 113.75a22.49 22.49 0 0 1-6.06 5.31c-.48.28-1 .55-1.47.79a21.12 21.12 0 0 0 7.72 2.43l1.26.11h.07a3.18 3.18 0 0 1 .61 0h2.06a.49.49 0 0 0 .23 0 1.71 1.71 0 0 0 .45 0h.22a4.52 4.52 0 0 0 .49 0h.15l.53-.08h.15l.6-.09h.09l1.18-.25c-3.26-1.2-6-4-8.34-8"/><path id="path13105" class="cls-25" d="M150.31 122.43a38 38 0 0 0 7.15-.69 43.43 43.43 0 0 0 6.67-1.8 24.29 24.29 0 0 0 5.86 2 25.39 25.39 0 0 0 5 .49z"/><path id="path13109" class="cls-25" d="M175 122.43c5.84 0 10.46-.69 14.39-2.58a21.12 21.12 0 0 0 7.72 2.43l1.26.11h.07a3.18 3.18 0 0 1 .61 0H175z"/><path id="path13113" d="M199.76 122.43h1.36a.47.47 0 0 0 .23 0 2.42 2.42 0 0 0 .46 0h.19a4.1 4.1 0 0 0 .49-.06h.15l.53-.07a.25.25 0 0 0 .16 0l.59-.1h.1c.39-.07.78-.15 1.18-.25a10.31 10.31 0 0 0 3.61.64h-9.11z" fill="#2862ae"/><path id="path13117" d="M191.72 101.69c-2.6 2.48-5.2 4.77-7.79 6.83-1.36 1.07-2.71 2.09-4.07 3.06a47.81 47.81 0 0 0 3.52 3.81 27.36 27.36 0 0 0 6 4.49c.49-.25 1-.51 1.46-.79a22.36 22.36 0 0 0 6.06-5.32 64.52 64.52 0 0 1-5.19-12" fill="#1d60ab"/><path id="path13139" d="M269.12 8h-14.73c-.79 0-1.57.07-2.33.12-.36.77-.73 1.54-1.09 2.32-12.18 26-25 48.46-38 66.34-6.11 18.81-10.6 30.22-16.1 36.93 2.36 4 5.09 6.83 8.34 8a1.38 1.38 0 0 1 .26-.06h.18l.41-.1c.09 0 .16 0 .24-.07l.37-.09a.88.88 0 0 1 .23-.07l.54-.16a1.07 1.07 0 0 1 .27-.09l.3-.11c.11 0 .22-.06.31-.1l.26-.1.63-.22c.06 0 .12-.05.18-.06l.39-.16a.59.59 0 0 1 .16-.06c.45-.18.91-.37 1.37-.58h.05c.65-.29 1.31-.61 2-1 21.13-11.8 31.8-51.47 65-110.71h-9.25z" fill="url(#linear-gradient-15)"/><path id="path13231" d="M85.7 10.62a.27.27 0 0 1 .15 0 1 1 0 0 1 .38 0h.13l.7.09a.18.18 0 0 1 .12 0l.59.1h.15c.45.09.92.19 1.37.3h.12l.55.16a.66.66 0 0 1 .15 0l.65.19.57.19a.86.86 0 0 0 .21.07l.41.17a.7.7 0 0 1 .23.08l.54.23c.1 0 .18.08.27.11a2.52 2.52 0 0 0 .33.14l.29.14.39.41a27.35 27.35 0 0 1 6.52 4.57 21.49 21.49 0 0 1 2.31-2.1 25.44 25.44 0 0 0-15.13-4.88c-.67 0-1.33 0-2 .08" fill="#7ecbeb"/><path id="path13235" d="M100.47 17.52a36.6 36.6 0 0 1 3.53 3.79c1.07-.75 2.14-1.47 3.21-2.15a34.31 34.31 0 0 0-4.42-3.75 22.59 22.59 0 0 0-2.31 2.1" fill="#61c5ec"/><g id="g13243"><path id="path13245" d="M85.69 10.62c.68-.06 1.34-.08 2-.08a25.5 25.5 0 0 1 15.08 4.87c4.63-3.65 10.22-4.92 18-4.92H83.14c.87 0 1.72 0 2.55.13" fill="url(#linear-gradient-16)"/></g><g id="g13253"><path id="path13255" d="M120.77 10.49c-7.77 0-13.36 1.27-18 4.92a34.31 34.31 0 0 1 4.42 3.75 55 55 0 0 1 19.11-8 38.9 38.9 0 0 1 7.16-.68z" fill="url(#linear-gradient-17)"/></g><path id="path13333" d="M213 76.83c3.34-10.31 7.16-22.82 11.91-38 4.29-13.67 11.86-23.89 26.09-28.35.37-.77.73-1.55 1.09-2.33-23.18 1.39-34 13.18-39.46 30.65-9.54 30.48-15.31 50.24-20.87 62.83A186 186 0 0 0 213 76.83" fill="url(#linear-gradient-18)"/></g></svg>